<svg xmlns="http://www.w3.org/2000/svg" xmlns:xlink="http://www.w3.org/1999/xlink"  zoomAndPan="magnify" viewBox="0 0 1920 1079.999946"  preserveAspectRatio="xMidYMid meet" version="1.0"><defs><g/><clipPath id="dfa0b6a0f6"><path d="M 61.191406 489.160156 L 123.210938 489.160156 L 123.210938 594.351562 L 61.191406 594.351562 Z M 61.191406 489.160156 " clip-rule="nonzero"/></clipPath><clipPath id="b1416c72dd"><path d="M 0.191406 0.160156 L 62.210938 0.160156 L 62.210938 105.351562 L 0.191406 105.351562 Z M 0.191406 0.160156 " clip-rule="nonzero"/></clipPath><clipPath id="2fa99ca31f"><rect x="0" width="63" y="0" height="106"/></clipPath><clipPath id="2b91de00e0"><path d="M 234.25 426.210938 L 296.269531 426.210938 L 296.269531 594.351562 L 234.25 594.351562 Z M 234.25 426.210938 " clip-rule="nonzero"/></clipPath><clipPath id="23e8d10e08"><path d="M 0.25 0.210938 L 62.269531 0.210938 L 62.269531 168.351562 L 0.25 168.351562 Z M 0.25 0.210938 " clip-rule="nonzero"/></clipPath><clipPath id="8e23360d16"><rect x="0" width="63" y="0" height="169"/></clipPath><clipPath id="ee53707576"><path d="M 147.71875 320.914062 L 209.742188 320.914062 L 209.742188 594.351562 L 147.71875 594.351562 Z M 147.71875 320.914062 " clip-rule="nonzero"/></clipPath><clipPath id="95169367b0"><path d="M 0.71875 0.914062 L 62.742188 0.914062 L 62.742188 274.351562 L 0.71875 274.351562 Z M 0.71875 0.914062 " clip-rule="nonzero"/></clipPath><clipPath id="c4cc6238a1"><rect x="0" width="63" y="0" height="275"/></clipPath><clipPath id="d6f9de7e47"><rect x="0" width="1568" y="0" height="281"/></clipPath><clipPath id="b5bd94d57d"><rect x="0" width="1793" y="0" height="73"/></clipPath></defs><g clip-path="url(#dfa0b6a0f6)"><g transform="matrix(1, 0, 0, 1, 61, 489)"><g clip-path="url(#2fa99ca31f)"><g clip-path="url(#b1416c72dd)"><path fill="#0f8a6c" d="M 0.191406 0.160156 L 62.210938 0.160156 L 62.210938 105.304688 L 0.191406 105.304688 Z M 0.191406 0.160156 " fill-opacity="1" fill-rule="nonzero"/></g></g></g></g><g clip-path="url(#2b91de00e0)"><g transform="matrix(1, 0, 0, 1, 234, 426)"><g clip-path="url(#8e23360d16)"><g clip-path="url(#23e8d10e08)"><path fill="#0f8a6c" d="M 0.25 0.210938 L 62.269531 0.210938 L 62.269531 168.347656 L 0.25 168.347656 Z M 0.25 0.210938 " fill-opacity="1" fill-rule="nonzero"/></g></g></g></g><g clip-path="url(#ee53707576)"><g transform="matrix(1, 0, 0, 1, 147, 320)"><g clip-path="url(#c4cc6238a1)"><g clip-path="url(#95169367b0)"><path fill="#0f8a6c" d="M 0.71875 0.914062 L 62.742188 0.914062 L 62.742188 274.4375 L 0.71875 274.4375 Z M 0.71875 0.914062 " fill-opacity="1" fill-rule="nonzero"/></g></g></g></g><g transform="matrix(1, 0, 0, 1, 314, 394)"><g clip-path="url(#d6f9de7e47)"><g fill="#1e2328" fill-opacity="1"><g transform="translate(1.298126, 200.381488)"><g><path d="M 166.15625 0 L 157.421875 -109.5 L 156.296875 -109.5 L 118.453125 -1.125 L 93.375 -1.125 L 55.53125 -109.5 L 54.40625 -109.5 L 45.6875 0 L 3.578125 0 L 20.15625 -184.734375 L 64.9375 -184.734375 L 105.921875 -78.15625 L 146.890625 -184.734375 L 191.671875 -184.734375 L 208.25 0 Z M 166.15625 0 "/></g></g></g><g fill="#1e2328" fill-opacity="1"><g transform="translate(213.125634, 200.381488)"><g><path d="M 24.296875 -13.65625 C 11.535156 -25 5.15625 -39.550781 5.15625 -57.3125 C 5.15625 -75.082031 11.796875 -89.675781 25.078125 -101.09375 C 38.367188 -112.519531 54.789062 -118.234375 74.34375 -118.234375 C 93.601562 -118.234375 109.835938 -112.484375 123.046875 -100.984375 C 136.253906 -89.492188 142.859375 -74.941406 142.859375 -57.328125 C 142.859375 -39.710938 136.398438 -25.191406 123.484375 -13.765625 C 110.578125 -2.347656 94.195312 3.359375 74.34375 3.359375 C 53.738281 3.359375 37.054688 -2.3125 24.296875 -13.65625 Z M 54.96875 -76.796875 C 49.820312 -71.722656 47.25 -65.226562 47.25 -57.3125 C 47.25 -49.40625 49.710938 -42.953125 54.640625 -37.953125 C 59.566406 -32.953125 66.0625 -30.453125 74.125 -30.453125 C 81.882812 -30.453125 88.265625 -32.988281 93.265625 -38.0625 C 98.265625 -43.144531 100.765625 -49.566406 100.765625 -57.328125 C 100.765625 -65.234375 98.1875 -71.722656 93.03125 -76.796875 C 87.882812 -81.878906 81.582031 -84.421875 74.125 -84.421875 C 66.507812 -84.421875 60.125 -81.878906 54.96875 -76.796875 Z M 54.96875 -76.796875 "/></g></g></g><g fill="#1e2328" fill-opacity="1"><g transform="translate(360.688331, 200.381488)"><g><path d="M 13.4375 0 L 13.4375 -114.875 L 53.0625 -114.875 L 53.0625 -102.78125 L 53.515625 -102.78125 C 63.816406 -113.082031 74.789062 -118.234375 86.4375 -118.234375 C 92.101562 -118.234375 97.734375 -117.484375 103.328125 -115.984375 C 108.929688 -114.492188 114.304688 -112.179688 119.453125 -109.046875 C 124.609375 -105.910156 128.789062 -101.46875 132 -95.71875 C 135.207031 -89.976562 136.8125 -83.300781 136.8125 -75.6875 L 136.8125 0 L 97.1875 0 L 97.1875 -64.9375 C 97.1875 -70.90625 95.28125 -76.128906 91.46875 -80.609375 C 87.664062 -85.085938 82.703125 -87.328125 76.578125 -87.328125 C 70.609375 -87.328125 65.195312 -85.015625 60.34375 -80.390625 C 55.488281 -75.765625 53.0625 -70.613281 53.0625 -64.9375 L 53.0625 0 Z M 13.4375 0 "/></g></g></g><g fill="#1e2328" fill-opacity="1"><g transform="translate(508.698871, 200.381488)"><g><path d="M 129.65625 -51.953125 L 46.359375 -51.953125 C 46.359375 -43.890625 48.96875 -37.914062 54.1875 -34.03125 C 59.414062 -30.15625 65.085938 -28.21875 71.203125 -28.21875 C 77.617188 -28.21875 82.691406 -29.070312 86.421875 -30.78125 C 90.160156 -32.5 94.421875 -35.898438 99.203125 -40.984375 L 127.859375 -26.640625 C 115.921875 -6.640625 96.066406 3.359375 68.296875 3.359375 C 50.984375 3.359375 36.128906 -2.570312 23.734375 -14.4375 C 11.347656 -26.3125 5.15625 -40.609375 5.15625 -57.328125 C 5.15625 -74.046875 11.347656 -88.375 23.734375 -100.3125 C 36.128906 -112.257812 50.984375 -118.234375 68.296875 -118.234375 C 86.503906 -118.234375 101.316406 -112.96875 112.734375 -102.4375 C 124.160156 -91.914062 129.875 -76.878906 129.875 -57.328125 C 129.875 -54.640625 129.800781 -52.847656 129.65625 -51.953125 Z M 47.46875 -73.890625 L 91.140625 -73.890625 C 90.242188 -79.859375 87.890625 -84.445312 84.078125 -87.65625 C 80.273438 -90.875 75.390625 -92.484375 69.421875 -92.484375 C 62.847656 -92.484375 57.617188 -90.765625 53.734375 -87.328125 C 49.859375 -83.890625 47.769531 -79.410156 47.46875 -73.890625 Z M 47.46875 -73.890625 "/></g></g></g><g fill="#1e2328" fill-opacity="1"><g transform="translate(642.602487, 200.381488)"><g><path d="M 100.546875 -114.875 L 146.21875 -114.875 L 55.984375 58.21875 L 10.296875 58.21875 L 49.9375 -17.90625 L -4.484375 -114.875 L 41.203125 -114.875 L 73.21875 -55.984375 Z M 100.546875 -114.875 "/></g></g></g><g fill="#0f8a6c" fill-opacity="1"><g transform="translate(784.348858, 200.381488)"><g><path d="M 13.4375 -184.734375 L 79.5 -184.734375 C 97.257812 -184.734375 111.738281 -179.992188 122.9375 -170.515625 C 134.132812 -161.035156 139.734375 -147.488281 139.734375 -129.875 C 139.734375 -116.289062 136.332031 -104.90625 129.53125 -95.71875 C 122.738281 -86.539062 113.523438 -80.085938 101.890625 -76.359375 L 165.484375 0 L 111.953125 0 L 55.53125 -73 L 55.53125 0 L 13.4375 0 Z M 55.53125 -102.78125 L 60.453125 -102.78125 C 64.335938 -102.78125 67.625 -102.851562 70.3125 -103 C 73 -103.15625 76.054688 -103.679688 79.484375 -104.578125 C 82.921875 -105.472656 85.679688 -106.738281 87.765625 -108.375 C 89.859375 -110.019531 91.648438 -112.410156 93.140625 -115.546875 C 94.640625 -118.679688 95.390625 -122.488281 95.390625 -126.96875 C 95.390625 -131.445312 94.640625 -135.253906 93.140625 -138.390625 C 91.648438 -141.523438 89.859375 -143.910156 87.765625 -145.546875 C 85.679688 -147.191406 82.921875 -148.460938 79.484375 -149.359375 C 76.054688 -150.253906 73 -150.773438 70.3125 -150.921875 C 67.625 -151.066406 64.335938 -151.140625 60.453125 -151.140625 L 55.53125 -151.140625 Z M 55.53125 -102.78125 "/></g></g></g><g fill="#0f8a6c" fill-opacity="1"><g transform="translate(939.300847, 200.381488)"><g><path d="M 129.65625 -51.953125 L 46.359375 -51.953125 C 46.359375 -43.890625 48.96875 -37.914062 54.1875 -34.03125 C 59.414062 -30.15625 65.085938 -28.21875 71.203125 -28.21875 C 77.617188 -28.21875 82.691406 -29.070312 86.421875 -30.78125 C 90.160156 -32.5 94.421875 -35.898438 99.203125 -40.984375 L 127.859375 -26.640625 C 115.921875 -6.640625 96.066406 3.359375 68.296875 3.359375 C 50.984375 3.359375 36.128906 -2.570312 23.734375 -14.4375 C 11.347656 -26.3125 5.15625 -40.609375 5.15625 -57.328125 C 5.15625 -74.046875 11.347656 -88.375 23.734375 -100.3125 C 36.128906 -112.257812 50.984375 -118.234375 68.296875 -118.234375 C 86.503906 -118.234375 101.316406 -112.96875 112.734375 -102.4375 C 124.160156 -91.914062 129.875 -76.878906 129.875 -57.328125 C 129.875 -54.640625 129.800781 -52.847656 129.65625 -51.953125 Z M 47.46875 -73.890625 L 91.140625 -73.890625 C 90.242188 -79.859375 87.890625 -84.445312 84.078125 -87.65625 C 80.273438 -90.875 75.390625 -92.484375 69.421875 -92.484375 C 62.847656 -92.484375 57.617188 -90.765625 53.734375 -87.328125 C 49.859375 -83.890625 47.769531 -79.410156 47.46875 -73.890625 Z M 47.46875 -73.890625 "/></g></g></g><g fill="#0f8a6c" fill-opacity="1"><g transform="translate(1073.204484, 200.381488)"><g><path d="M 42.546875 -114.875 L 70.53125 -52.390625 L 98.53125 -114.875 L 145.546875 -114.875 L 83.96875 0 L 57.09375 0 L -4.484375 -114.875 Z M 42.546875 -114.875 "/></g></g></g><g fill="#0f8a6c" fill-opacity="1"><g transform="translate(1213.601769, 200.381488)"><g><path d="M 129.65625 -51.953125 L 46.359375 -51.953125 C 46.359375 -43.890625 48.96875 -37.914062 54.1875 -34.03125 C 59.414062 -30.15625 65.085938 -28.21875 71.203125 -28.21875 C 77.617188 -28.21875 82.691406 -29.070312 86.421875 -30.78125 C 90.160156 -32.5 94.421875 -35.898438 99.203125 -40.984375 L 127.859375 -26.640625 C 115.921875 -6.640625 96.066406 3.359375 68.296875 3.359375 C 50.984375 3.359375 36.128906 -2.570312 23.734375 -14.4375 C 11.347656 -26.3125 5.15625 -40.609375 5.15625 -57.328125 C 5.15625 -74.046875 11.347656 -88.375 23.734375 -100.3125 C 36.128906 -112.257812 50.984375 -118.234375 68.296875 -118.234375 C 86.503906 -118.234375 101.316406 -112.96875 112.734375 -102.4375 C 124.160156 -91.914062 129.875 -76.878906 129.875 -57.328125 C 129.875 -54.640625 129.800781 -52.847656 129.65625 -51.953125 Z M 47.46875 -73.890625 L 91.140625 -73.890625 C 90.242188 -79.859375 87.890625 -84.445312 84.078125 -87.65625 C 80.273438 -90.875 75.390625 -92.484375 69.421875 -92.484375 C 62.847656 -92.484375 57.617188 -90.765625 53.734375 -87.328125 C 49.859375 -83.890625 47.769531 -79.410156 47.46875 -73.890625 Z M 47.46875 -73.890625 "/></g></g></g><g fill="#0f8a6c" fill-opacity="1"><g transform="translate(1347.505428, 200.381488)"><g><path d="M 21.265625 -14.21875 C 10.523438 -25.9375 5.15625 -40.300781 5.15625 -57.3125 C 5.15625 -74.332031 10.523438 -88.738281 21.265625 -100.53125 C 32.015625 -112.332031 45.675781 -118.234375 62.25 -118.234375 C 77.476562 -118.234375 90.019531 -113.457031 99.875 -103.90625 L 99.875 -114.875 L 139.5 -114.875 L 139.5 0 L 100.3125 0 L 100.3125 -12.984375 L 99.875 -12.984375 C 90.019531 -2.085938 77.476562 3.359375 62.25 3.359375 C 45.675781 3.359375 32.015625 -2.5 21.265625 -14.21875 Z M 54.96875 -76.796875 C 49.820312 -71.722656 47.25 -65.226562 47.25 -57.3125 C 47.25 -49.40625 49.710938 -42.953125 54.640625 -37.953125 C 59.566406 -32.953125 66.0625 -30.453125 74.125 -30.453125 C 81.882812 -30.453125 88.265625 -32.988281 93.265625 -38.0625 C 98.265625 -43.144531 100.765625 -49.566406 100.765625 -57.328125 C 100.765625 -65.234375 98.1875 -71.722656 93.03125 -76.796875 C 87.882812 -81.878906 81.582031 -84.421875 74.125 -84.421875 C 66.507812 -84.421875 60.125 -81.878906 54.96875 -76.796875 Z M 54.96875 -76.796875 "/></g></g></g><g fill="#0f8a6c" fill-opacity="1"><g transform="translate(1500.442205, 200.381488)"><g><path d="M 13.4375 0 L 13.4375 -192.578125 L 53.0625 -192.578125 L 53.0625 0 Z M 13.4375 0 "/></g></g></g></g></g><g transform="matrix(1, 0, 0, 1, 63, 666)"><g clip-path="url(#b5bd94d57d)"><g fill="#1e2328" fill-opacity="1"><g transform="translate(1.348846, 51.953397)"><g><path d="M 39.703125 -47.203125 L 39.703125 -16.765625 C 39.703125 -10.960938 38.140625 -6.570312 35.015625 -3.59375 C 31.890625 -0.625 27.3125 0.859375 21.28125 0.859375 C 15.257812 0.859375 10.679688 -0.625 7.546875 -3.59375 C 4.421875 -6.570312 2.859375 -10.960938 2.859375 -16.765625 L 2.859375 -47.203125 L 13.625 -47.203125 L 13.625 -19.90625 C 13.625 -16.09375 14.222656 -13.441406 15.421875 -11.953125 C 16.617188 -10.472656 18.570312 -9.734375 21.28125 -9.734375 C 23.988281 -9.734375 25.941406 -10.472656 27.140625 -11.953125 C 28.347656 -13.441406 28.953125 -16.09375 28.953125 -19.90625 L 28.953125 -47.203125 Z M 39.703125 -47.203125 "/></g></g></g><g fill="#1e2328" fill-opacity="1"><g transform="translate(43.908156, 51.953397)"><g><path d="M 33.640625 -25.71875 C 36.390625 -22.726562 37.765625 -19.054688 37.765625 -14.703125 C 37.765625 -10.359375 36.390625 -6.675781 33.640625 -3.65625 C 30.898438 -0.644531 27.410156 0.859375 23.171875 0.859375 C 19.285156 0.859375 16.082031 -0.359375 13.5625 -2.796875 L 13.5625 14.875 L 3.4375 14.875 L 3.4375 -29.359375 L 13.453125 -29.359375 L 13.453125 -26.03125 L 13.5625 -26.03125 C 16.082031 -28.820312 19.285156 -30.21875 23.171875 -30.21875 C 27.410156 -30.21875 30.898438 -28.71875 33.640625 -25.71875 Z M 25.03125 -9.71875 C 26.34375 -11.019531 27 -12.679688 27 -14.703125 C 27 -16.722656 26.367188 -18.375 25.109375 -19.65625 C 23.859375 -20.9375 22.203125 -21.578125 20.140625 -21.578125 C 18.160156 -21.578125 16.53125 -20.925781 15.25 -19.625 C 13.96875 -18.332031 13.328125 -16.691406 13.328125 -14.703125 C 13.328125 -12.679688 13.984375 -11.019531 15.296875 -9.71875 C 16.617188 -8.425781 18.234375 -7.78125 20.140625 -7.78125 C 22.085938 -7.78125 23.71875 -8.425781 25.03125 -9.71875 Z M 25.03125 -9.71875 "/></g></g></g><g fill="#1e2328" fill-opacity="1"><g transform="translate(82.978057, 51.953397)"><g><path d="M 3.4375 0 L 3.4375 -49.203125 L 13.5625 -49.203125 L 13.5625 0 Z M 3.4375 0 "/></g></g></g><g fill="#1e2328" fill-opacity="1"><g transform="translate(99.967464, 51.953397)"><g><path d="M 6.203125 -3.484375 C 2.941406 -6.390625 1.3125 -10.109375 1.3125 -14.640625 C 1.3125 -19.179688 3.007812 -22.910156 6.40625 -25.828125 C 9.800781 -28.753906 14 -30.21875 19 -30.21875 C 23.914062 -30.21875 28.0625 -28.75 31.4375 -25.8125 C 34.8125 -22.875 36.5 -19.148438 36.5 -14.640625 C 36.5 -10.140625 34.847656 -6.429688 31.546875 -3.515625 C 28.253906 -0.597656 24.070312 0.859375 19 0.859375 C 13.726562 0.859375 9.460938 -0.585938 6.203125 -3.484375 Z M 14.046875 -19.625 C 12.734375 -18.332031 12.078125 -16.671875 12.078125 -14.640625 C 12.078125 -12.617188 12.703125 -10.96875 13.953125 -9.6875 C 15.210938 -8.414062 16.875 -7.78125 18.9375 -7.78125 C 20.925781 -7.78125 22.554688 -8.425781 23.828125 -9.71875 C 25.109375 -11.019531 25.75 -12.660156 25.75 -14.640625 C 25.75 -16.671875 25.085938 -18.332031 23.765625 -19.625 C 22.453125 -20.925781 20.84375 -21.578125 18.9375 -21.578125 C 16.988281 -21.578125 15.359375 -20.925781 14.046875 -19.625 Z M 14.046875 -19.625 "/></g></g></g><g fill="#1e2328" fill-opacity="1"><g transform="translate(137.492811, 51.953397)"><g><path d="M 5.4375 -3.625 C 2.6875 -6.625 1.3125 -10.296875 1.3125 -14.640625 C 1.3125 -18.992188 2.6875 -22.675781 5.4375 -25.6875 C 8.1875 -28.707031 11.675781 -30.21875 15.90625 -30.21875 C 19.800781 -30.21875 23.003906 -28.992188 25.515625 -26.546875 L 25.515625 -29.359375 L 35.640625 -29.359375 L 35.640625 0 L 25.640625 0 L 25.640625 -3.3125 L 25.515625 -3.3125 C 23.003906 -0.53125 19.800781 0.859375 15.90625 0.859375 C 11.675781 0.859375 8.1875 -0.632812 5.4375 -3.625 Z M 14.046875 -19.625 C 12.734375 -18.332031 12.078125 -16.671875 12.078125 -14.640625 C 12.078125 -12.617188 12.703125 -10.96875 13.953125 -9.6875 C 15.210938 -8.414062 16.875 -7.78125 18.9375 -7.78125 C 20.925781 -7.78125 22.554688 -8.425781 23.828125 -9.71875 C 25.109375 -11.019531 25.75 -12.660156 25.75 -14.640625 C 25.75 -16.671875 25.085938 -18.332031 23.765625 -19.625 C 22.453125 -20.925781 20.84375 -21.578125 18.9375 -21.578125 C 16.988281 -21.578125 15.359375 -20.925781 14.046875 -19.625 Z M 14.046875 -19.625 "/></g></g></g><g fill="#1e2328" fill-opacity="1"><g transform="translate(176.562712, 51.953397)"><g><path d="M 5.4375 -3.625 C 2.6875 -6.625 1.3125 -10.296875 1.3125 -14.640625 C 1.3125 -18.992188 2.6875 -22.675781 5.4375 -25.6875 C 8.1875 -28.707031 11.675781 -30.21875 15.90625 -30.21875 C 19.800781 -30.21875 23.003906 -28.992188 25.515625 -26.546875 L 25.515625 -49.203125 L 35.640625 -49.203125 L 35.640625 0 L 25.640625 0 L 25.640625 -3.3125 L 25.515625 -3.3125 C 23.003906 -0.53125 19.800781 0.859375 15.90625 0.859375 C 11.675781 0.859375 8.1875 -0.632812 5.4375 -3.625 Z M 14.046875 -19.625 C 12.734375 -18.332031 12.078125 -16.671875 12.078125 -14.640625 C 12.078125 -12.617188 12.703125 -10.96875 13.953125 -9.6875 C 15.210938 -8.414062 16.875 -7.78125 18.9375 -7.78125 C 20.925781 -7.78125 22.554688 -8.425781 23.828125 -9.71875 C 25.109375 -11.019531 25.75 -12.660156 25.75 -14.640625 C 25.75 -16.671875 25.085938 -18.332031 23.765625 -19.625 C 22.453125 -20.925781 20.84375 -21.578125 18.9375 -21.578125 C 16.988281 -21.578125 15.359375 -20.925781 14.046875 -19.625 Z M 14.046875 -19.625 "/></g></g></g><g fill="#1e2328" fill-opacity="1"><g transform="translate(215.632614, 51.953397)"><g/></g></g><g fill="#1e2328" fill-opacity="1"><g transform="translate(230.905815, 51.953397)"><g><path d="M 25.6875 -29.359375 L 37.359375 -29.359375 L 14.3125 14.875 L 2.625 14.875 L 12.765625 -4.578125 L -1.140625 -29.359375 L 10.53125 -29.359375 L 18.703125 -14.3125 Z M 25.6875 -29.359375 "/></g></g></g><g fill="#1e2328" fill-opacity="1"><g transform="translate(266.943901, 51.953397)"><g><path d="M 6.203125 -3.484375 C 2.941406 -6.390625 1.3125 -10.109375 1.3125 -14.640625 C 1.3125 -19.179688 3.007812 -22.910156 6.40625 -25.828125 C 9.800781 -28.753906 14 -30.21875 19 -30.21875 C 23.914062 -30.21875 28.0625 -28.75 31.4375 -25.8125 C 34.8125 -22.875 36.5 -19.148438 36.5 -14.640625 C 36.5 -10.140625 34.847656 -6.429688 31.546875 -3.515625 C 28.253906 -0.597656 24.070312 0.859375 19 0.859375 C 13.726562 0.859375 9.460938 -0.585938 6.203125 -3.484375 Z M 14.046875 -19.625 C 12.734375 -18.332031 12.078125 -16.671875 12.078125 -14.640625 C 12.078125 -12.617188 12.703125 -10.96875 13.953125 -9.6875 C 15.210938 -8.414062 16.875 -7.78125 18.9375 -7.78125 C 20.925781 -7.78125 22.554688 -8.425781 23.828125 -9.71875 C 25.109375 -11.019531 25.75 -12.660156 25.75 -14.640625 C 25.75 -16.671875 25.085938 -18.332031 23.765625 -19.625 C 22.453125 -20.925781 20.84375 -21.578125 18.9375 -21.578125 C 16.988281 -21.578125 15.359375 -20.925781 14.046875 -19.625 Z M 14.046875 -19.625 "/></g></g></g><g fill="#1e2328" fill-opacity="1"><g transform="translate(304.755338, 51.953397)"><g><path d="M 12.984375 -29.359375 L 12.984375 -15.390625 C 12.984375 -12.492188 13.421875 -10.429688 14.296875 -9.203125 C 15.179688 -7.984375 16.671875 -7.375 18.765625 -7.375 C 20.867188 -7.375 22.359375 -7.984375 23.234375 -9.203125 C 24.109375 -10.429688 24.546875 -12.492188 24.546875 -15.390625 L 24.546875 -29.359375 L 34.671875 -29.359375 L 34.671875 -12.9375 C 34.671875 -8.050781 33.398438 -4.53125 30.859375 -2.375 C 28.328125 -0.21875 24.296875 0.859375 18.765625 0.859375 C 13.234375 0.859375 9.195312 -0.21875 6.65625 -2.375 C 4.125 -4.53125 2.859375 -8.050781 2.859375 -12.9375 L 2.859375 -29.359375 Z M 12.984375 -29.359375 "/></g></g></g><g fill="#1e2328" fill-opacity="1"><g transform="translate(342.280748, 51.953397)"><g><path d="M 3.4375 0 L 3.4375 -29.359375 L 13.5625 -29.359375 L 13.5625 -25.125 L 13.671875 -25.125 C 13.753906 -25.269531 13.878906 -25.457031 14.046875 -25.6875 C 14.222656 -25.914062 14.59375 -26.316406 15.15625 -26.890625 C 15.726562 -27.460938 16.335938 -27.976562 16.984375 -28.4375 C 17.640625 -28.894531 18.484375 -29.304688 19.515625 -29.671875 C 20.546875 -30.035156 21.59375 -30.21875 22.65625 -30.21875 C 23.757812 -30.21875 24.84375 -30.0625 25.90625 -29.75 C 26.976562 -29.445312 27.765625 -29.144531 28.265625 -28.84375 L 29.0625 -28.375 L 24.828125 -19.796875 C 23.566406 -20.867188 21.8125 -21.40625 19.5625 -21.40625 C 18.34375 -21.40625 17.296875 -21.132812 16.421875 -20.59375 C 15.546875 -20.0625 14.925781 -19.414062 14.5625 -18.65625 C 14.195312 -17.894531 13.9375 -17.242188 13.78125 -16.703125 C 13.632812 -16.171875 13.5625 -15.753906 13.5625 -15.453125 L 13.5625 0 Z M 3.4375 0 "/></g></g></g><g fill="#1e2328" fill-opacity="1"><g transform="translate(370.768026, 51.953397)"><g/></g></g><g fill="#1e2328" fill-opacity="1"><g transform="translate(386.384528, 51.953397)"><g><path d="M 33.640625 -25.6875 C 36.390625 -22.675781 37.765625 -18.992188 37.765625 -14.640625 C 37.765625 -10.296875 36.390625 -6.625 33.640625 -3.625 C 30.898438 -0.632812 27.410156 0.859375 23.171875 0.859375 C 19.285156 0.859375 16.082031 -0.53125 13.5625 -3.3125 L 13.453125 -3.3125 L 13.453125 0 L 3.4375 0 L 3.4375 -49.203125 L 13.5625 -49.203125 L 13.5625 -26.546875 C 16.082031 -28.992188 19.285156 -30.21875 23.171875 -30.21875 C 27.410156 -30.21875 30.898438 -28.707031 33.640625 -25.6875 Z M 25.109375 -9.6875 C 26.367188 -10.96875 27 -12.617188 27 -14.640625 C 27 -16.671875 26.34375 -18.332031 25.03125 -19.625 C 23.71875 -20.925781 22.085938 -21.578125 20.140625 -21.578125 C 18.234375 -21.578125 16.617188 -20.925781 15.296875 -19.625 C 13.984375 -18.332031 13.328125 -16.671875 13.328125 -14.640625 C 13.328125 -12.660156 13.96875 -11.019531 15.25 -9.71875 C 16.53125 -8.425781 18.160156 -7.78125 20.140625 -7.78125 C 22.203125 -7.78125 23.859375 -8.414062 25.109375 -9.6875 Z M 25.109375 -9.6875 "/></g></g></g><g fill="#1e2328" fill-opacity="1"><g transform="translate(425.45445, 51.953397)"><g><path d="M 5.4375 -3.625 C 2.6875 -6.625 1.3125 -10.296875 1.3125 -14.640625 C 1.3125 -18.992188 2.6875 -22.675781 5.4375 -25.6875 C 8.1875 -28.707031 11.675781 -30.21875 15.90625 -30.21875 C 19.800781 -30.21875 23.003906 -28.992188 25.515625 -26.546875 L 25.515625 -29.359375 L 35.640625 -29.359375 L 35.640625 0 L 25.640625 0 L 25.640625 -3.3125 L 25.515625 -3.3125 C 23.003906 -0.53125 19.800781 0.859375 15.90625 0.859375 C 11.675781 0.859375 8.1875 -0.632812 5.4375 -3.625 Z M 14.046875 -19.625 C 12.734375 -18.332031 12.078125 -16.671875 12.078125 -14.640625 C 12.078125 -12.617188 12.703125 -10.96875 13.953125 -9.6875 C 15.210938 -8.414062 16.875 -7.78125 18.9375 -7.78125 C 20.925781 -7.78125 22.554688 -8.425781 23.828125 -9.71875 C 25.109375 -11.019531 25.75 -12.660156 25.75 -14.640625 C 25.75 -16.671875 25.085938 -18.332031 23.765625 -19.625 C 22.453125 -20.925781 20.84375 -21.578125 18.9375 -21.578125 C 16.988281 -21.578125 15.359375 -20.925781 14.046875 -19.625 Z M 14.046875 -19.625 "/></g></g></g><g fill="#1e2328" fill-opacity="1"><g transform="translate(464.524372, 51.953397)"><g><path d="M 3.4375 0 L 3.4375 -29.359375 L 13.5625 -29.359375 L 13.5625 -26.265625 L 13.671875 -26.265625 C 16.304688 -28.898438 19.113281 -30.21875 22.09375 -30.21875 C 23.539062 -30.21875 24.976562 -30.023438 26.40625 -29.640625 C 27.832031 -29.253906 29.203125 -28.660156 30.515625 -27.859375 C 31.835938 -27.054688 32.90625 -25.921875 33.71875 -24.453125 C 34.539062 -22.992188 34.953125 -21.289062 34.953125 -19.34375 L 34.953125 0 L 24.828125 0 L 24.828125 -16.59375 C 24.828125 -18.113281 24.34375 -19.445312 23.375 -20.59375 C 22.40625 -21.738281 21.132812 -22.3125 19.5625 -22.3125 C 18.039062 -22.3125 16.660156 -21.71875 15.421875 -20.53125 C 14.179688 -19.351562 13.5625 -18.039062 13.5625 -16.59375 L 13.5625 0 Z M 3.4375 0 "/></g></g></g><g fill="#1e2328" fill-opacity="1"><g transform="translate(502.335767, 51.953397)"><g><path d="M 36.96875 -29.359375 L 23 -15.328125 L 38.34375 0 L 25.296875 0 L 13.5625 -11.734375 L 13.5625 0 L 3.4375 0 L 3.4375 -49.203125 L 13.5625 -49.203125 L 13.5625 -19.109375 L 23.796875 -29.359375 Z M 36.96875 -29.359375 "/></g></g></g><g fill="#1e2328" fill-opacity="1"><g transform="translate(539.289143, 51.953397)"><g/></g></g><g fill="#1e2328" fill-opacity="1"><g transform="translate(554.905687, 51.953397)"><g><path d="M 5.15625 -29.359375 L 5.15625 -35.59375 C 5.1875 -39.976562 6.210938 -43.484375 8.234375 -46.109375 C 10.253906 -48.742188 13.0625 -50.0625 16.65625 -50.0625 C 18.175781 -50.0625 19.628906 -49.84375 21.015625 -49.40625 C 22.410156 -48.96875 23.414062 -48.519531 24.03125 -48.0625 L 25 -47.4375 L 21.453125 -40.28125 C 20.535156 -40.8125 19.523438 -41.078125 18.421875 -41.078125 C 17.160156 -41.078125 16.320312 -40.648438 15.90625 -39.796875 C 15.488281 -38.941406 15.28125 -37.441406 15.28125 -35.296875 L 15.28125 -29.359375 L 22.03125 -29.359375 L 22.03125 -21.625 L 15.28125 -21.625 L 15.28125 0 L 5.15625 0 L 5.15625 -21.625 L 0.921875 -21.625 L 0.921875 -29.359375 Z M 5.15625 -29.359375 "/></g></g></g><g fill="#1e2328" fill-opacity="1"><g transform="translate(576.356939, 51.953397)"><g><path d="M 4.390625 -45.703125 C 5.578125 -46.890625 6.988281 -47.484375 8.625 -47.484375 C 10.269531 -47.484375 11.679688 -46.890625 12.859375 -45.703125 C 14.046875 -44.523438 14.640625 -43.113281 14.640625 -41.46875 C 14.640625 -39.832031 14.046875 -38.421875 12.859375 -37.234375 C 11.679688 -36.054688 10.269531 -35.46875 8.625 -35.46875 C 6.988281 -35.46875 5.578125 -36.054688 4.390625 -37.234375 C 3.210938 -38.421875 2.625 -39.832031 2.625 -41.46875 C 2.625 -43.113281 3.210938 -44.523438 4.390625 -45.703125 Z M 3.4375 -29.359375 L 3.4375 0 L 13.5625 0 L 13.5625 -29.359375 Z M 3.4375 -29.359375 "/></g></g></g><g fill="#1e2328" fill-opacity="1"><g transform="translate(593.632394, 51.953397)"><g><path d="M 3.4375 0 L 3.4375 -49.203125 L 13.5625 -49.203125 L 13.5625 0 Z M 3.4375 0 "/></g></g></g><g fill="#1e2328" fill-opacity="1"><g transform="translate(610.621758, 51.953397)"><g><path d="M 33.125 -13.28125 L 11.84375 -13.28125 C 11.84375 -11.21875 12.507812 -9.6875 13.84375 -8.6875 C 15.175781 -7.695312 16.628906 -7.203125 18.203125 -7.203125 C 19.835938 -7.203125 21.128906 -7.421875 22.078125 -7.859375 C 23.035156 -8.304688 24.125 -9.175781 25.34375 -10.46875 L 32.671875 -6.8125 C 29.617188 -1.695312 24.546875 0.859375 17.453125 0.859375 C 13.023438 0.859375 9.226562 -0.65625 6.0625 -3.6875 C 2.894531 -6.71875 1.3125 -10.367188 1.3125 -14.640625 C 1.3125 -18.921875 2.894531 -22.585938 6.0625 -25.640625 C 9.226562 -28.691406 13.023438 -30.21875 17.453125 -30.21875 C 22.109375 -30.21875 25.894531 -28.867188 28.8125 -26.171875 C 31.726562 -23.484375 33.1875 -19.640625 33.1875 -14.640625 C 33.1875 -13.960938 33.164062 -13.507812 33.125 -13.28125 Z M 12.125 -18.875 L 23.28125 -18.875 C 23.050781 -20.40625 22.453125 -21.578125 21.484375 -22.390625 C 20.515625 -23.210938 19.265625 -23.625 17.734375 -23.625 C 16.054688 -23.625 14.722656 -23.1875 13.734375 -22.3125 C 12.742188 -21.4375 12.207031 -20.289062 12.125 -18.875 Z M 12.125 -18.875 "/></g></g></g><g fill="#1e2328" fill-opacity="1"><g transform="translate(645.115415, 51.953397)"><g><path d="M 9.953125 -12.25 C 11.785156 -12.25 13.335938 -11.609375 14.609375 -10.328125 C 15.890625 -9.046875 16.53125 -7.492188 16.53125 -5.671875 C 16.53125 -3.867188 15.890625 -2.328125 14.609375 -1.046875 C 13.335938 0.222656 11.785156 0.859375 9.953125 0.859375 C 8.160156 0.859375 6.625 0.222656 5.34375 -1.046875 C 4.070312 -2.328125 3.4375 -3.867188 3.4375 -5.671875 C 3.4375 -7.492188 4.070312 -9.046875 5.34375 -10.328125 C 6.625 -11.609375 8.160156 -12.25 9.953125 -12.25 Z M 9.953125 -12.25 "/></g></g></g><g fill="#1e2328" fill-opacity="1"><g transform="translate(665.079385, 51.953397)"><g/></g></g><g fill="#1e2328" fill-opacity="1"><g transform="translate(679.551526, 51.953397)"><g><path d="M 20.828125 -48.0625 C 23.378906 -48.0625 25.875 -47.6875 28.3125 -46.9375 C 30.757812 -46.195312 32.578125 -45.46875 33.765625 -44.75 L 35.46875 -43.59375 L 31.125 -35.015625 C 30.78125 -35.242188 30.300781 -35.539062 29.6875 -35.90625 C 29.082031 -36.269531 27.941406 -36.753906 26.265625 -37.359375 C 24.585938 -37.972656 23.023438 -38.28125 21.578125 -38.28125 C 19.773438 -38.28125 18.390625 -37.894531 17.421875 -37.125 C 16.453125 -36.363281 15.96875 -35.335938 15.96875 -34.046875 C 15.96875 -33.398438 16.195312 -32.796875 16.65625 -32.234375 C 17.113281 -31.679688 17.894531 -31.09375 19 -30.46875 C 20.101562 -29.84375 21.070312 -29.335938 21.90625 -28.953125 C 22.75 -28.566406 24.050781 -27.992188 25.8125 -27.234375 C 28.863281 -25.941406 31.460938 -24.175781 33.609375 -21.9375 C 35.765625 -19.707031 36.84375 -17.179688 36.84375 -14.359375 C 36.84375 -11.648438 36.359375 -9.285156 35.390625 -7.265625 C 34.421875 -5.242188 33.085938 -3.660156 31.390625 -2.515625 C 29.691406 -1.367188 27.8125 -0.519531 25.75 0.03125 C 23.6875 0.582031 21.453125 0.859375 19.046875 0.859375 C 16.992188 0.859375 14.972656 0.644531 12.984375 0.21875 C 11.003906 -0.195312 9.347656 -0.71875 8.015625 -1.34375 C 6.679688 -1.96875 5.476562 -2.585938 4.40625 -3.203125 C 3.332031 -3.816406 2.550781 -4.332031 2.0625 -4.75 L 1.3125 -5.375 L 6.6875 -14.421875 C 7.144531 -14.035156 7.773438 -13.546875 8.578125 -12.953125 C 9.378906 -12.367188 10.800781 -11.578125 12.84375 -10.578125 C 14.882812 -9.585938 16.6875 -9.09375 18.25 -9.09375 C 22.789062 -9.09375 25.0625 -10.640625 25.0625 -13.734375 C 25.0625 -14.378906 24.898438 -14.976562 24.578125 -15.53125 C 24.253906 -16.082031 23.679688 -16.632812 22.859375 -17.1875 C 22.035156 -17.75 21.304688 -18.191406 20.671875 -18.515625 C 20.046875 -18.835938 19.019531 -19.332031 17.59375 -20 C 16.164062 -20.664062 15.109375 -21.171875 14.421875 -21.515625 C 11.554688 -22.921875 9.34375 -24.679688 7.78125 -26.796875 C 6.21875 -28.921875 5.4375 -31.203125 5.4375 -33.640625 C 5.4375 -37.878906 7 -41.34375 10.125 -44.03125 C 13.25 -46.71875 16.816406 -48.0625 20.828125 -48.0625 Z M 20.828125 -48.0625 "/></g></g></g><g fill="#1e2328" fill-opacity="1"><g transform="translate(717.992227, 51.953397)"><g><path d="M 33.125 -13.28125 L 11.84375 -13.28125 C 11.84375 -11.21875 12.507812 -9.6875 13.84375 -8.6875 C 15.175781 -7.695312 16.628906 -7.203125 18.203125 -7.203125 C 19.835938 -7.203125 21.128906 -7.421875 22.078125 -7.859375 C 23.035156 -8.304688 24.125 -9.175781 25.34375 -10.46875 L 32.671875 -6.8125 C 29.617188 -1.695312 24.546875 0.859375 17.453125 0.859375 C 13.023438 0.859375 9.226562 -0.65625 6.0625 -3.6875 C 2.894531 -6.71875 1.3125 -10.367188 1.3125 -14.640625 C 1.3125 -18.921875 2.894531 -22.585938 6.0625 -25.640625 C 9.226562 -28.691406 13.023438 -30.21875 17.453125 -30.21875 C 22.109375 -30.21875 25.894531 -28.867188 28.8125 -26.171875 C 31.726562 -23.484375 33.1875 -19.640625 33.1875 -14.640625 C 33.1875 -13.960938 33.164062 -13.507812 33.125 -13.28125 Z M 12.125 -18.875 L 23.28125 -18.875 C 23.050781 -20.40625 22.453125 -21.578125 21.484375 -22.390625 C 20.515625 -23.210938 19.265625 -23.625 17.734375 -23.625 C 16.054688 -23.625 14.722656 -23.1875 13.734375 -22.3125 C 12.742188 -21.4375 12.207031 -20.289062 12.125 -18.875 Z M 12.125 -18.875 "/></g></g></g><g fill="#1e2328" fill-opacity="1"><g transform="translate(752.485884, 51.953397)"><g><path d="M 33.125 -13.28125 L 11.84375 -13.28125 C 11.84375 -11.21875 12.507812 -9.6875 13.84375 -8.6875 C 15.175781 -7.695312 16.628906 -7.203125 18.203125 -7.203125 C 19.835938 -7.203125 21.128906 -7.421875 22.078125 -7.859375 C 23.035156 -8.304688 24.125 -9.175781 25.34375 -10.46875 L 32.671875 -6.8125 C 29.617188 -1.695312 24.546875 0.859375 17.453125 0.859375 C 13.023438 0.859375 9.226562 -0.65625 6.0625 -3.6875 C 2.894531 -6.71875 1.3125 -10.367188 1.3125 -14.640625 C 1.3125 -18.921875 2.894531 -22.585938 6.0625 -25.640625 C 9.226562 -28.691406 13.023438 -30.21875 17.453125 -30.21875 C 22.109375 -30.21875 25.894531 -28.867188 28.8125 -26.171875 C 31.726562 -23.484375 33.1875 -19.640625 33.1875 -14.640625 C 33.1875 -13.960938 33.164062 -13.507812 33.125 -13.28125 Z M 12.125 -18.875 L 23.28125 -18.875 C 23.050781 -20.40625 22.453125 -21.578125 21.484375 -22.390625 C 20.515625 -23.210938 19.265625 -23.625 17.734375 -23.625 C 16.054688 -23.625 14.722656 -23.1875 13.734375 -22.3125 C 12.742188 -21.4375 12.207031 -20.289062 12.125 -18.875 Z M 12.125 -18.875 "/></g></g></g><g fill="#1e2328" fill-opacity="1"><g transform="translate(786.979457, 51.953397)"><g/></g></g><g fill="#1e2328" fill-opacity="1"><g transform="translate(802.252701, 51.953397)"><g><path d="M 21.453125 0 L 14.59375 0 L -1.140625 -29.359375 L 10.53125 -29.359375 L 17.6875 -13.5 L 24.71875 -29.359375 L 31.703125 -29.359375 L 38.734375 -13.5 L 45.890625 -29.359375 L 57.5625 -29.359375 L 41.828125 0 L 34.953125 0 L 28.203125 -15.15625 Z M 21.453125 0 "/></g></g></g><g fill="#1e2328" fill-opacity="1"><g transform="translate(858.655162, 51.953397)"><g><path d="M 3.4375 0 L 3.4375 -49.203125 L 13.5625 -49.203125 L 13.5625 -26.265625 L 13.671875 -26.265625 C 16.304688 -28.898438 19.113281 -30.21875 22.09375 -30.21875 C 23.539062 -30.21875 24.976562 -30.023438 26.40625 -29.640625 C 27.832031 -29.253906 29.203125 -28.660156 30.515625 -27.859375 C 31.835938 -27.054688 32.90625 -25.921875 33.71875 -24.453125 C 34.539062 -22.992188 34.953125 -21.289062 34.953125 -19.34375 L 34.953125 0 L 24.828125 0 L 24.828125 -16.59375 C 24.828125 -18.113281 24.34375 -19.445312 23.375 -20.59375 C 22.40625 -21.738281 21.132812 -22.3125 19.5625 -22.3125 C 18.039062 -22.3125 16.660156 -21.71875 15.421875 -20.53125 C 14.179688 -19.351562 13.5625 -18.039062 13.5625 -16.59375 L 13.5625 0 Z M 3.4375 0 "/></g></g></g><g fill="#1e2328" fill-opacity="1"><g transform="translate(896.466641, 51.953397)"><g><path d="M 33.125 -13.28125 L 11.84375 -13.28125 C 11.84375 -11.21875 12.507812 -9.6875 13.84375 -8.6875 C 15.175781 -7.695312 16.628906 -7.203125 18.203125 -7.203125 C 19.835938 -7.203125 21.128906 -7.421875 22.078125 -7.859375 C 23.035156 -8.304688 24.125 -9.175781 25.34375 -10.46875 L 32.671875 -6.8125 C 29.617188 -1.695312 24.546875 0.859375 17.453125 0.859375 C 13.023438 0.859375 9.226562 -0.65625 6.0625 -3.6875 C 2.894531 -6.71875 1.3125 -10.367188 1.3125 -14.640625 C 1.3125 -18.921875 2.894531 -22.585938 6.0625 -25.640625 C 9.226562 -28.691406 13.023438 -30.21875 17.453125 -30.21875 C 22.109375 -30.21875 25.894531 -28.867188 28.8125 -26.171875 C 31.726562 -23.484375 33.1875 -19.640625 33.1875 -14.640625 C 33.1875 -13.960938 33.164062 -13.507812 33.125 -13.28125 Z M 12.125 -18.875 L 23.28125 -18.875 C 23.050781 -20.40625 22.453125 -21.578125 21.484375 -22.390625 C 20.515625 -23.210938 19.265625 -23.625 17.734375 -23.625 C 16.054688 -23.625 14.722656 -23.1875 13.734375 -22.3125 C 12.742188 -21.4375 12.207031 -20.289062 12.125 -18.875 Z M 12.125 -18.875 "/></g></g></g><g fill="#1e2328" fill-opacity="1"><g transform="translate(930.84588, 51.953397)"><g><path d="M 3.4375 0 L 3.4375 -29.359375 L 13.5625 -29.359375 L 13.5625 -25.125 L 13.671875 -25.125 C 13.753906 -25.269531 13.878906 -25.457031 14.046875 -25.6875 C 14.222656 -25.914062 14.59375 -26.316406 15.15625 -26.890625 C 15.726562 -27.460938 16.335938 -27.976562 16.984375 -28.4375 C 17.640625 -28.894531 18.484375 -29.304688 19.515625 -29.671875 C 20.546875 -30.035156 21.59375 -30.21875 22.65625 -30.21875 C 23.757812 -30.21875 24.84375 -30.0625 25.90625 -29.75 C 26.976562 -29.445312 27.765625 -29.144531 28.265625 -28.84375 L 29.0625 -28.375 L 24.828125 -19.796875 C 23.566406 -20.867188 21.8125 -21.40625 19.5625 -21.40625 C 18.34375 -21.40625 17.296875 -21.132812 16.421875 -20.59375 C 15.546875 -20.0625 14.925781 -19.414062 14.5625 -18.65625 C 14.195312 -17.894531 13.9375 -17.242188 13.78125 -16.703125 C 13.632812 -16.171875 13.5625 -15.753906 13.5625 -15.453125 L 13.5625 0 Z M 3.4375 0 "/></g></g></g><g fill="#1e2328" fill-opacity="1"><g transform="translate(958.989816, 51.953397)"><g><path d="M 33.125 -13.28125 L 11.84375 -13.28125 C 11.84375 -11.21875 12.507812 -9.6875 13.84375 -8.6875 C 15.175781 -7.695312 16.628906 -7.203125 18.203125 -7.203125 C 19.835938 -7.203125 21.128906 -7.421875 22.078125 -7.859375 C 23.035156 -8.304688 24.125 -9.175781 25.34375 -10.46875 L 32.671875 -6.8125 C 29.617188 -1.695312 24.546875 0.859375 17.453125 0.859375 C 13.023438 0.859375 9.226562 -0.65625 6.0625 -3.6875 C 2.894531 -6.71875 1.3125 -10.367188 1.3125 -14.640625 C 1.3125 -18.921875 2.894531 -22.585938 6.0625 -25.640625 C 9.226562 -28.691406 13.023438 -30.21875 17.453125 -30.21875 C 22.109375 -30.21875 25.894531 -28.867188 28.8125 -26.171875 C 31.726562 -23.484375 33.1875 -19.640625 33.1875 -14.640625 C 33.1875 -13.960938 33.164062 -13.507812 33.125 -13.28125 Z M 12.125 -18.875 L 23.28125 -18.875 C 23.050781 -20.40625 22.453125 -21.578125 21.484375 -22.390625 C 20.515625 -23.210938 19.265625 -23.625 17.734375 -23.625 C 16.054688 -23.625 14.722656 -23.1875 13.734375 -22.3125 C 12.742188 -21.4375 12.207031 -20.289062 12.125 -18.875 Z M 12.125 -18.875 "/></g></g></g><g fill="#1e2328" fill-opacity="1"><g transform="translate(993.483473, 51.953397)"><g/></g></g><g fill="#1e2328" fill-opacity="1"><g transform="translate(1008.756633, 51.953397)"><g><path d="M 25.6875 -29.359375 L 37.359375 -29.359375 L 14.3125 14.875 L 2.625 14.875 L 12.765625 -4.578125 L -1.140625 -29.359375 L 10.53125 -29.359375 L 18.703125 -14.3125 Z M 25.6875 -29.359375 "/></g></g></g><g fill="#1e2328" fill-opacity="1"><g transform="translate(1044.79474, 51.953397)"><g><path d="M 6.203125 -3.484375 C 2.941406 -6.390625 1.3125 -10.109375 1.3125 -14.640625 C 1.3125 -19.179688 3.007812 -22.910156 6.40625 -25.828125 C 9.800781 -28.753906 14 -30.21875 19 -30.21875 C 23.914062 -30.21875 28.0625 -28.75 31.4375 -25.8125 C 34.8125 -22.875 36.5 -19.148438 36.5 -14.640625 C 36.5 -10.140625 34.847656 -6.429688 31.546875 -3.515625 C 28.253906 -0.597656 24.070312 0.859375 19 0.859375 C 13.726562 0.859375 9.460938 -0.585938 6.203125 -3.484375 Z M 14.046875 -19.625 C 12.734375 -18.332031 12.078125 -16.671875 12.078125 -14.640625 C 12.078125 -12.617188 12.703125 -10.96875 13.953125 -9.6875 C 15.210938 -8.414062 16.875 -7.78125 18.9375 -7.78125 C 20.925781 -7.78125 22.554688 -8.425781 23.828125 -9.71875 C 25.109375 -11.019531 25.75 -12.660156 25.75 -14.640625 C 25.75 -16.671875 25.085938 -18.332031 23.765625 -19.625 C 22.453125 -20.925781 20.84375 -21.578125 18.9375 -21.578125 C 16.988281 -21.578125 15.359375 -20.925781 14.046875 -19.625 Z M 14.046875 -19.625 "/></g></g></g><g fill="#1e2328" fill-opacity="1"><g transform="translate(1082.606135, 51.953397)"><g><path d="M 12.984375 -29.359375 L 12.984375 -15.390625 C 12.984375 -12.492188 13.421875 -10.429688 14.296875 -9.203125 C 15.179688 -7.984375 16.671875 -7.375 18.765625 -7.375 C 20.867188 -7.375 22.359375 -7.984375 23.234375 -9.203125 C 24.109375 -10.429688 24.546875 -12.492188 24.546875 -15.390625 L 24.546875 -29.359375 L 34.671875 -29.359375 L 34.671875 -12.9375 C 34.671875 -8.050781 33.398438 -4.53125 30.859375 -2.375 C 28.328125 -0.21875 24.296875 0.859375 18.765625 0.859375 C 13.234375 0.859375 9.195312 -0.21875 6.65625 -2.375 C 4.125 -4.53125 2.859375 -8.050781 2.859375 -12.9375 L 2.859375 -29.359375 Z M 12.984375 -29.359375 "/></g></g></g><g fill="#1e2328" fill-opacity="1"><g transform="translate(1120.131523, 51.953397)"><g><path d="M 3.4375 0 L 3.4375 -29.359375 L 13.5625 -29.359375 L 13.5625 -25.125 L 13.671875 -25.125 C 13.753906 -25.269531 13.878906 -25.457031 14.046875 -25.6875 C 14.222656 -25.914062 14.59375 -26.316406 15.15625 -26.890625 C 15.726562 -27.460938 16.335938 -27.976562 16.984375 -28.4375 C 17.640625 -28.894531 18.484375 -29.304688 19.515625 -29.671875 C 20.546875 -30.035156 21.59375 -30.21875 22.65625 -30.21875 C 23.757812 -30.21875 24.84375 -30.0625 25.90625 -29.75 C 26.976562 -29.445312 27.765625 -29.144531 28.265625 -28.84375 L 29.0625 -28.375 L 24.828125 -19.796875 C 23.566406 -20.867188 21.8125 -21.40625 19.5625 -21.40625 C 18.34375 -21.40625 17.296875 -21.132812 16.421875 -20.59375 C 15.546875 -20.0625 14.925781 -19.414062 14.5625 -18.65625 C 14.195312 -17.894531 13.9375 -17.242188 13.78125 -16.703125 C 13.632812 -16.171875 13.5625 -15.753906 13.5625 -15.453125 L 13.5625 0 Z M 3.4375 0 "/></g></g></g><g fill="#1e2328" fill-opacity="1"><g transform="translate(1148.618801, 51.953397)"><g/></g></g><g fill="#1e2328" fill-opacity="1"><g transform="translate(1164.235387, 51.953397)"><g><path d="M 3.4375 0 L 3.4375 -29.359375 L 13.5625 -29.359375 L 13.5625 -26.265625 L 13.671875 -26.265625 C 16.304688 -28.898438 19.113281 -30.21875 22.09375 -30.21875 C 24.226562 -30.21875 26.226562 -29.773438 28.09375 -28.890625 C 29.957031 -28.015625 31.367188 -26.660156 32.328125 -24.828125 C 35.304688 -28.421875 38.550781 -30.21875 42.0625 -30.21875 C 45.1875 -30.21875 47.875 -29.335938 50.125 -27.578125 C 52.375 -25.828125 53.5 -23.082031 53.5 -19.34375 L 53.5 0 L 43.375 0 L 43.375 -16.59375 C 43.375 -18.15625 42.941406 -19.460938 42.078125 -20.515625 C 41.222656 -21.566406 39.9375 -22.09375 38.21875 -22.09375 C 36.726562 -22.09375 35.59375 -21.640625 34.8125 -20.734375 C 34.03125 -19.835938 33.601562 -18.765625 33.53125 -17.515625 L 33.53125 0 L 23.40625 0 L 23.40625 -16.59375 C 23.40625 -18.15625 22.972656 -19.460938 22.109375 -20.515625 C 21.253906 -21.566406 19.96875 -22.09375 18.25 -22.09375 C 16.6875 -22.09375 15.515625 -21.601562 14.734375 -20.625 C 13.953125 -19.65625 13.5625 -18.503906 13.5625 -17.171875 L 13.5625 0 Z M 3.4375 0 "/></g></g></g><g fill="#1e2328" fill-opacity="1"><g transform="translate(1220.58068, 51.953397)"><g><path d="M 6.203125 -3.484375 C 2.941406 -6.390625 1.3125 -10.109375 1.3125 -14.640625 C 1.3125 -19.179688 3.007812 -22.910156 6.40625 -25.828125 C 9.800781 -28.753906 14 -30.21875 19 -30.21875 C 23.914062 -30.21875 28.0625 -28.75 31.4375 -25.8125 C 34.8125 -22.875 36.5 -19.148438 36.5 -14.640625 C 36.5 -10.140625 34.847656 -6.429688 31.546875 -3.515625 C 28.253906 -0.597656 24.070312 0.859375 19 0.859375 C 13.726562 0.859375 9.460938 -0.585938 6.203125 -3.484375 Z M 14.046875 -19.625 C 12.734375 -18.332031 12.078125 -16.671875 12.078125 -14.640625 C 12.078125 -12.617188 12.703125 -10.96875 13.953125 -9.6875 C 15.210938 -8.414062 16.875 -7.78125 18.9375 -7.78125 C 20.925781 -7.78125 22.554688 -8.425781 23.828125 -9.71875 C 25.109375 -11.019531 25.75 -12.660156 25.75 -14.640625 C 25.75 -16.671875 25.085938 -18.332031 23.765625 -19.625 C 22.453125 -20.925781 20.84375 -21.578125 18.9375 -21.578125 C 16.988281 -21.578125 15.359375 -20.925781 14.046875 -19.625 Z M 14.046875 -19.625 "/></g></g></g><g fill="#1e2328" fill-opacity="1"><g transform="translate(1258.27774, 51.953397)"><g><path d="M 3.4375 0 L 3.4375 -29.359375 L 13.5625 -29.359375 L 13.5625 -26.265625 L 13.671875 -26.265625 C 16.304688 -28.898438 19.113281 -30.21875 22.09375 -30.21875 C 23.539062 -30.21875 24.976562 -30.023438 26.40625 -29.640625 C 27.832031 -29.253906 29.203125 -28.660156 30.515625 -27.859375 C 31.835938 -27.054688 32.90625 -25.921875 33.71875 -24.453125 C 34.539062 -22.992188 34.953125 -21.289062 34.953125 -19.34375 L 34.953125 0 L 24.828125 0 L 24.828125 -16.59375 C 24.828125 -18.113281 24.34375 -19.445312 23.375 -20.59375 C 22.40625 -21.738281 21.132812 -22.3125 19.5625 -22.3125 C 18.039062 -22.3125 16.660156 -21.71875 15.421875 -20.53125 C 14.179688 -19.351562 13.5625 -18.039062 13.5625 -16.59375 L 13.5625 0 Z M 3.4375 0 "/></g></g></g><g fill="#1e2328" fill-opacity="1"><g transform="translate(1296.089135, 51.953397)"><g><path d="M 33.125 -13.28125 L 11.84375 -13.28125 C 11.84375 -11.21875 12.507812 -9.6875 13.84375 -8.6875 C 15.175781 -7.695312 16.628906 -7.203125 18.203125 -7.203125 C 19.835938 -7.203125 21.128906 -7.421875 22.078125 -7.859375 C 23.035156 -8.304688 24.125 -9.175781 25.34375 -10.46875 L 32.671875 -6.8125 C 29.617188 -1.695312 24.546875 0.859375 17.453125 0.859375 C 13.023438 0.859375 9.226562 -0.65625 6.0625 -3.6875 C 2.894531 -6.71875 1.3125 -10.367188 1.3125 -14.640625 C 1.3125 -18.921875 2.894531 -22.585938 6.0625 -25.640625 C 9.226562 -28.691406 13.023438 -30.21875 17.453125 -30.21875 C 22.109375 -30.21875 25.894531 -28.867188 28.8125 -26.171875 C 31.726562 -23.484375 33.1875 -19.640625 33.1875 -14.640625 C 33.1875 -13.960938 33.164062 -13.507812 33.125 -13.28125 Z M 12.125 -18.875 L 23.28125 -18.875 C 23.050781 -20.40625 22.453125 -21.578125 21.484375 -22.390625 C 20.515625 -23.210938 19.265625 -23.625 17.734375 -23.625 C 16.054688 -23.625 14.722656 -23.1875 13.734375 -22.3125 C 12.742188 -21.4375 12.207031 -20.289062 12.125 -18.875 Z M 12.125 -18.875 "/></g></g></g><g fill="#1e2328" fill-opacity="1"><g transform="translate(1330.296702, 51.953397)"><g><path d="M 25.6875 -29.359375 L 37.359375 -29.359375 L 14.3125 14.875 L 2.625 14.875 L 12.765625 -4.578125 L -1.140625 -29.359375 L 10.53125 -29.359375 L 18.703125 -14.3125 Z M 25.6875 -29.359375 "/></g></g></g><g fill="#1e2328" fill-opacity="1"><g transform="translate(1366.506396, 51.953397)"><g/></g></g><g fill="#1e2328" fill-opacity="1"><g transform="translate(1382.122982, 51.953397)"><g><path d="M 5.4375 -3.625 C 2.6875 -6.625 1.3125 -10.296875 1.3125 -14.640625 C 1.3125 -18.992188 2.6875 -22.675781 5.4375 -25.6875 C 8.1875 -28.707031 11.675781 -30.21875 15.90625 -30.21875 C 19.800781 -30.21875 23.003906 -28.992188 25.515625 -26.546875 L 25.515625 -29.359375 L 35.640625 -29.359375 L 35.640625 0 L 25.640625 0 L 25.640625 -3.3125 L 25.515625 -3.3125 C 23.003906 -0.53125 19.800781 0.859375 15.90625 0.859375 C 11.675781 0.859375 8.1875 -0.632812 5.4375 -3.625 Z M 14.046875 -19.625 C 12.734375 -18.332031 12.078125 -16.671875 12.078125 -14.640625 C 12.078125 -12.617188 12.703125 -10.96875 13.953125 -9.6875 C 15.210938 -8.414062 16.875 -7.78125 18.9375 -7.78125 C 20.925781 -7.78125 22.554688 -8.425781 23.828125 -9.71875 C 25.109375 -11.019531 25.75 -12.660156 25.75 -14.640625 C 25.75 -16.671875 25.085938 -18.332031 23.765625 -19.625 C 22.453125 -20.925781 20.84375 -21.578125 18.9375 -21.578125 C 16.988281 -21.578125 15.359375 -20.925781 14.046875 -19.625 Z M 14.046875 -19.625 "/></g></g></g><g fill="#1e2328" fill-opacity="1"><g transform="translate(1421.192904, 51.953397)"><g><path d="M 19.046875 -21.921875 C 17.140625 -21.921875 15.5 -21.210938 14.125 -19.796875 C 12.757812 -18.390625 12.078125 -16.691406 12.078125 -14.703125 C 12.078125 -12.679688 12.757812 -10.960938 14.125 -9.546875 C 15.5 -8.140625 17.140625 -7.4375 19.046875 -7.4375 C 19.960938 -7.4375 20.832031 -7.550781 21.65625 -7.78125 C 22.476562 -8.007812 23.078125 -8.238281 23.453125 -8.46875 L 23.96875 -8.8125 L 27.40625 -1.78125 C 27.132812 -1.582031 26.757812 -1.335938 26.28125 -1.046875 C 25.8125 -0.765625 24.726562 -0.378906 23.03125 0.109375 C 21.332031 0.609375 19.507812 0.859375 17.5625 0.859375 C 13.25 0.859375 9.460938 -0.65625 6.203125 -3.6875 C 2.941406 -6.71875 1.3125 -10.351562 1.3125 -14.59375 C 1.3125 -18.863281 2.941406 -22.535156 6.203125 -25.609375 C 9.460938 -28.679688 13.25 -30.21875 17.5625 -30.21875 C 19.507812 -30.21875 21.300781 -29.988281 22.9375 -29.53125 C 24.582031 -29.070312 25.75 -28.613281 26.4375 -28.15625 L 27.40625 -27.46875 L 23.96875 -20.546875 C 22.71875 -21.460938 21.078125 -21.921875 19.046875 -21.921875 Z M 19.046875 -21.921875 "/></g></g></g><g fill="#1e2328" fill-opacity="1"><g transform="translate(1448.993667, 51.953397)"><g><path d="M 5.15625 -29.359375 L 5.15625 -40.28125 L 15.28125 -40.28125 L 15.28125 -29.359375 L 21.453125 -29.359375 L 21.453125 -21.625 L 15.28125 -21.625 L 15.28125 -12.296875 C 15.28125 -9.585938 16.039062 -8.234375 17.5625 -8.234375 C 17.945312 -8.234375 18.347656 -8.3125 18.765625 -8.46875 C 19.179688 -8.625 19.503906 -8.773438 19.734375 -8.921875 L 20.078125 -9.15625 L 22.59375 -0.96875 C 20.425781 0.25 17.945312 0.859375 15.15625 0.859375 C 13.25 0.859375 11.609375 0.523438 10.234375 -0.140625 C 8.867188 -0.804688 7.832031 -1.703125 7.125 -2.828125 C 6.414062 -3.953125 5.910156 -5.132812 5.609375 -6.375 C 5.304688 -7.613281 5.15625 -8.941406 5.15625 -10.359375 L 5.15625 -21.625 L 0.921875 -21.625 L 0.921875 -29.359375 Z M 5.15625 -29.359375 "/></g></g></g><g fill="#1e2328" fill-opacity="1"><g transform="translate(1471.588902, 51.953397)"><g><path d="M 12.984375 -29.359375 L 12.984375 -15.390625 C 12.984375 -12.492188 13.421875 -10.429688 14.296875 -9.203125 C 15.179688 -7.984375 16.671875 -7.375 18.765625 -7.375 C 20.867188 -7.375 22.359375 -7.984375 23.234375 -9.203125 C 24.109375 -10.429688 24.546875 -12.492188 24.546875 -15.390625 L 24.546875 -29.359375 L 34.671875 -29.359375 L 34.671875 -12.9375 C 34.671875 -8.050781 33.398438 -4.53125 30.859375 -2.375 C 28.328125 -0.21875 24.296875 0.859375 18.765625 0.859375 C 13.234375 0.859375 9.195312 -0.21875 6.65625 -2.375 C 4.125 -4.53125 2.859375 -8.050781 2.859375 -12.9375 L 2.859375 -29.359375 Z M 12.984375 -29.359375 "/></g></g></g><g fill="#1e2328" fill-opacity="1"><g transform="translate(1509.114374, 51.953397)"><g><path d="M 5.4375 -3.625 C 2.6875 -6.625 1.3125 -10.296875 1.3125 -14.640625 C 1.3125 -18.992188 2.6875 -22.675781 5.4375 -25.6875 C 8.1875 -28.707031 11.675781 -30.21875 15.90625 -30.21875 C 19.800781 -30.21875 23.003906 -28.992188 25.515625 -26.546875 L 25.515625 -29.359375 L 35.640625 -29.359375 L 35.640625 0 L 25.640625 0 L 25.640625 -3.3125 L 25.515625 -3.3125 C 23.003906 -0.53125 19.800781 0.859375 15.90625 0.859375 C 11.675781 0.859375 8.1875 -0.632812 5.4375 -3.625 Z M 14.046875 -19.625 C 12.734375 -18.332031 12.078125 -16.671875 12.078125 -14.640625 C 12.078125 -12.617188 12.703125 -10.96875 13.953125 -9.6875 C 15.210938 -8.414062 16.875 -7.78125 18.9375 -7.78125 C 20.925781 -7.78125 22.554688 -8.425781 23.828125 -9.71875 C 25.109375 -11.019531 25.75 -12.660156 25.75 -14.640625 C 25.75 -16.671875 25.085938 -18.332031 23.765625 -19.625 C 22.453125 -20.925781 20.84375 -21.578125 18.9375 -21.578125 C 16.988281 -21.578125 15.359375 -20.925781 14.046875 -19.625 Z M 14.046875 -19.625 "/></g></g></g><g fill="#1e2328" fill-opacity="1"><g transform="translate(1548.184296, 51.953397)"><g><path d="M 3.4375 0 L 3.4375 -49.203125 L 13.5625 -49.203125 L 13.5625 0 Z M 3.4375 0 "/></g></g></g><g fill="#1e2328" fill-opacity="1"><g transform="translate(1565.173576, 51.953397)"><g><path d="M 3.4375 0 L 3.4375 -49.203125 L 13.5625 -49.203125 L 13.5625 0 Z M 3.4375 0 "/></g></g></g><g fill="#1e2328" fill-opacity="1"><g transform="translate(1581.819683, 51.953397)"><g><path d="M 25.6875 -29.359375 L 37.359375 -29.359375 L 14.3125 14.875 L 2.625 14.875 L 12.765625 -4.578125 L -1.140625 -29.359375 L 10.53125 -29.359375 L 18.703125 -14.3125 Z M 25.6875 -29.359375 "/></g></g></g><g fill="#1e2328" fill-opacity="1"><g transform="translate(1618.029545, 51.953397)"><g/></g></g><g fill="#1e2328" fill-opacity="1"><g transform="translate(1633.645963, 51.953397)"><g><path d="M 2.109375 7.203125 L 10.40625 3.140625 C 11.9375 5.660156 14.59375 6.921875 18.375 6.921875 C 20.125 6.921875 21.75 6.359375 23.25 5.234375 C 24.757812 4.109375 25.515625 2.382812 25.515625 0.0625 L 25.515625 -2.109375 C 23.722656 -0.128906 20.519531 0.859375 15.90625 0.859375 C 11.675781 0.859375 8.1875 -0.632812 5.4375 -3.625 C 2.6875 -6.625 1.3125 -10.296875 1.3125 -14.640625 C 1.3125 -18.992188 2.6875 -22.675781 5.4375 -25.6875 C 8.1875 -28.707031 11.675781 -30.21875 15.90625 -30.21875 C 19.6875 -30.21875 22.832031 -29.050781 25.34375 -26.71875 L 25.515625 -26.71875 L 25.515625 -29.359375 L 35.640625 -29.359375 L 35.640625 0.796875 C 35.640625 5.566406 34.054688 9.25 30.890625 11.84375 C 27.734375 14.4375 23.5625 15.734375 18.375 15.734375 C 9.976562 15.734375 4.554688 12.890625 2.109375 7.203125 Z M 14.046875 -19.625 C 12.734375 -18.332031 12.078125 -16.671875 12.078125 -14.640625 C 12.078125 -12.617188 12.703125 -10.96875 13.953125 -9.6875 C 15.210938 -8.414062 16.875 -7.78125 18.9375 -7.78125 C 20.925781 -7.78125 22.554688 -8.425781 23.828125 -9.71875 C 25.109375 -11.019531 25.75 -12.660156 25.75 -14.640625 C 25.75 -16.671875 25.085938 -18.332031 23.765625 -19.625 C 22.453125 -20.925781 20.84375 -21.578125 18.9375 -21.578125 C 16.988281 -21.578125 15.359375 -20.925781 14.046875 -19.625 Z M 14.046875 -19.625 "/></g></g></g><g fill="#1e2328" fill-opacity="1"><g transform="translate(1672.429795, 51.953397)"><g><path d="M 6.203125 -3.484375 C 2.941406 -6.390625 1.3125 -10.109375 1.3125 -14.640625 C 1.3125 -19.179688 3.007812 -22.910156 6.40625 -25.828125 C 9.800781 -28.753906 14 -30.21875 19 -30.21875 C 23.914062 -30.21875 28.0625 -28.75 31.4375 -25.8125 C 34.8125 -22.875 36.5 -19.148438 36.5 -14.640625 C 36.5 -10.140625 34.847656 -6.429688 31.546875 -3.515625 C 28.253906 -0.597656 24.070312 0.859375 19 0.859375 C 13.726562 0.859375 9.460938 -0.585938 6.203125 -3.484375 Z M 14.046875 -19.625 C 12.734375 -18.332031 12.078125 -16.671875 12.078125 -14.640625 C 12.078125 -12.617188 12.703125 -10.96875 13.953125 -9.6875 C 15.210938 -8.414062 16.875 -7.78125 18.9375 -7.78125 C 20.925781 -7.78125 22.554688 -8.425781 23.828125 -9.71875 C 25.109375 -11.019531 25.75 -12.660156 25.75 -14.640625 C 25.75 -16.671875 25.085938 -18.332031 23.765625 -19.625 C 22.453125 -20.925781 20.84375 -21.578125 18.9375 -21.578125 C 16.988281 -21.578125 15.359375 -20.925781 14.046875 -19.625 Z M 14.046875 -19.625 "/></g></g></g><g fill="#1e2328" fill-opacity="1"><g transform="translate(1710.24119, 51.953397)"><g><path d="M 33.125 -13.28125 L 11.84375 -13.28125 C 11.84375 -11.21875 12.507812 -9.6875 13.84375 -8.6875 C 15.175781 -7.695312 16.628906 -7.203125 18.203125 -7.203125 C 19.835938 -7.203125 21.128906 -7.421875 22.078125 -7.859375 C 23.035156 -8.304688 24.125 -9.175781 25.34375 -10.46875 L 32.671875 -6.8125 C 29.617188 -1.695312 24.546875 0.859375 17.453125 0.859375 C 13.023438 0.859375 9.226562 -0.65625 6.0625 -3.6875 C 2.894531 -6.71875 1.3125 -10.367188 1.3125 -14.640625 C 1.3125 -18.921875 2.894531 -22.585938 6.0625 -25.640625 C 9.226562 -28.691406 13.023438 -30.21875 17.453125 -30.21875 C 22.109375 -30.21875 25.894531 -28.867188 28.8125 -26.171875 C 31.726562 -23.484375 33.1875 -19.640625 33.1875 -14.640625 C 33.1875 -13.960938 33.164062 -13.507812 33.125 -13.28125 Z M 12.125 -18.875 L 23.28125 -18.875 C 23.050781 -20.40625 22.453125 -21.578125 21.484375 -22.390625 C 20.515625 -23.210938 19.265625 -23.625 17.734375 -23.625 C 16.054688 -23.625 14.722656 -23.1875 13.734375 -22.3125 C 12.742188 -21.4375 12.207031 -20.289062 12.125 -18.875 Z M 12.125 -18.875 "/></g></g></g><g fill="#1e2328" fill-opacity="1"><g transform="translate(1744.50601, 51.953397)"><g><path d="M 16.1875 -30.21875 C 17.863281 -30.21875 19.519531 -30.023438 21.15625 -29.640625 C 22.800781 -29.253906 24.023438 -28.875 24.828125 -28.5 L 26.03125 -27.921875 L 22.71875 -21.28125 C 20.425781 -22.5 18.25 -23.109375 16.1875 -23.109375 C 15.039062 -23.109375 14.226562 -22.984375 13.75 -22.734375 C 13.28125 -22.492188 13.046875 -22.03125 13.046875 -21.34375 C 13.046875 -21.1875 13.0625 -21.03125 13.09375 -20.875 C 13.132812 -20.726562 13.210938 -20.585938 13.328125 -20.453125 C 13.441406 -20.316406 13.546875 -20.203125 13.640625 -20.109375 C 13.742188 -20.015625 13.90625 -19.910156 14.125 -19.796875 C 14.351562 -19.679688 14.535156 -19.59375 14.671875 -19.53125 C 14.804688 -19.476562 15.023438 -19.394531 15.328125 -19.28125 C 15.640625 -19.164062 15.867188 -19.078125 16.015625 -19.015625 C 16.171875 -18.960938 16.429688 -18.878906 16.796875 -18.765625 C 17.160156 -18.648438 17.4375 -18.570312 17.625 -18.53125 C 18.800781 -18.195312 19.828125 -17.816406 20.703125 -17.390625 C 21.585938 -16.972656 22.515625 -16.398438 23.484375 -15.671875 C 24.460938 -14.953125 25.21875 -14.035156 25.75 -12.921875 C 26.28125 -11.816406 26.546875 -10.5625 26.546875 -9.15625 C 26.546875 -2.476562 21.910156 0.859375 12.640625 0.859375 C 10.546875 0.859375 8.550781 0.535156 6.65625 -0.109375 C 4.769531 -0.765625 3.410156 -1.414062 2.578125 -2.0625 L 1.3125 -3.09375 L 5.4375 -10.015625 C 5.738281 -9.742188 6.132812 -9.425781 6.625 -9.0625 C 7.125 -8.707031 8.019531 -8.210938 9.3125 -7.578125 C 10.613281 -6.953125 11.742188 -6.640625 12.703125 -6.640625 C 14.796875 -6.640625 15.84375 -7.34375 15.84375 -8.75 C 15.84375 -9.40625 15.578125 -9.910156 15.046875 -10.265625 C 14.515625 -10.628906 13.609375 -11.039062 12.328125 -11.5 C 11.046875 -11.957031 10.046875 -12.378906 9.328125 -12.765625 C 7.492188 -13.710938 6.039062 -14.785156 4.96875 -15.984375 C 3.90625 -17.191406 3.375 -18.785156 3.375 -20.765625 C 3.375 -23.742188 4.523438 -26.0625 6.828125 -27.71875 C 9.140625 -29.382812 12.257812 -30.21875 16.1875 -30.21875 Z M 16.1875 -30.21875 "/></g></g></g><g fill="#1e2328" fill-opacity="1"><g transform="translate(1772.650114, 51.953397)"><g><path d="M 9.953125 -12.25 C 11.785156 -12.25 13.335938 -11.609375 14.609375 -10.328125 C 15.890625 -9.046875 16.53125 -7.492188 16.53125 -5.671875 C 16.53125 -3.867188 15.890625 -2.328125 14.609375 -1.046875 C 13.335938 0.222656 11.785156 0.859375 9.953125 0.859375 C 8.160156 0.859375 6.625 0.222656 5.34375 -1.046875 C 4.070312 -2.328125 3.4375 -3.867188 3.4375 -5.671875 C 3.4375 -7.492188 4.070312 -9.046875 5.34375 -10.328125 C 6.625 -11.609375 8.160156 -12.25 9.953125 -12.25 Z M 9.953125 -12.25 "/></g></g></g></g></g></svg>